<?xml version="1.0" encoding="utf-8"?>
<?xml-stylesheet type="text/xsl" href="rss1.xsl"?>
<rss version="2.0" xmlns:atom="http://www.w3.org/2005/Atom" xmlns:content="http://purl.org/rss/1.0/modules/content/" xmlns:dc="http://purl.org/dc/elements/1.1/" xmlns:media="http://search.yahoo.com/mrss/">
<channel>
 <title>Getty</title>
 <link>http://www.gettyimg.com/</link>
 <atom:link href="http://www.gettyimg.com/" rel="self" type="application/rss+xml" />

 
                <item>
                <title><![CDATA[【HD Live Performances】HDTV - Justin Timberlake - Selfish, Sanctified ( Live @ Saturday Night Live ) HDTV MPEG2 1080i DD5.1-ilya2129]]></title>
                <link><![CDATA[https://sharemania.us/threads/justin-timberlake-selfish-sanctified-live-saturday-night-live-hdtv-mpeg2-1080i-dd5-1-ilya2129.238007/]]></link>
                <description><![CDATA[<article>
<blockquote class="messageText SelectQuoteContainer ugc baseHtml">
<div style="text-align: center"><img src="https://i120.fastpic.org/big/2022/1002/bd/d45b76551a682bff93a631261c4d52bd.png" class="bbCodeImage LbImage" alt="[​IMG]" data-url="https://i120.fastpic.org/big/2022/1002/bd/d45b76551a682bff93a631261c4d52bd.png" style=""><br>
<br>
<a href="https://postimg.cc/7bRgfLrs" target="_blank" class="externalLink" rel="nofollow"><img src="https://i.postimg.cc/7bRgfLrs/vlcsnap-2024-02-19-00h14m16s694.png" class="bbCodeImage LbImage" alt="[​IMG]" data-url="https://i.postimg.cc/7bRgfLrs/vlcsnap-2024-02-19-00h14m16s694.png"></a> <a href="https://postimg.cc/gxVRSqXQ" target="_blank" class="externalLink" rel="nofollow"><img src="https://i.postimg.cc/gxVRSqXQ/vlcsnap-2024-02-19-00h14m19s269.png" class="bbCodeImage LbImage" alt="[​IMG]" data-url="https://i.postimg.cc/gxVRSqXQ/vlcsnap-2024-02-19-00h14m19s269.png"></a> <a href="https://postimg.cc/t196LZFT" target="_blank" class="externalLink" rel="nofollow"><img src="https://i.postimg.cc/t196LZFT/vlcsnap-2024-02-19-00h14m23s663.png" class="bbCodeImage LbImage" alt="[​IMG]" data-url="https://i.postimg.cc/t196LZFT/vlcsnap-2024-02-19-00h14m23s663.png"></a> <a href="https://postimg.cc/21Rh7X6n" target="_blank" class="externalLink" rel="nofollow"><img src="https://i.postimg.cc/21Rh7X6n/vlcsnap-2024-02-19-00h14m26s164.png" class="bbCodeImage LbImage" alt="[​IMG]" data-url="https://i.postimg.cc/21Rh7X6n/vlcsnap-2024-02-19-00h14m26s164.png"></a> <a href="https://postimg.cc/t1D6yqzz" target="_blank" class="externalLink" rel="nofollow"><img src="https://i.postimg.cc/t1D6yqzz/vlcsnap-2024-02-19-00h14m28s952.png" class="bbCodeImage LbImage" alt="[​IMG]" data-url="https://i.postimg.cc/t1D6yqzz/vlcsnap-2024-02-19-00h14m28s952.png"></a> <a href="https://postimg.cc/SJzc8pyy" target="_blank" class="externalLink" rel="nofollow"><img src="https://i.postimg.cc/SJzc8pyy/vlcsnap-2024-02-19-00h14m31s999.png" class="bbCodeImage LbImage" alt="[​IMG]" data-url="https://i.postimg.cc/SJzc8pyy/vlcsnap-2024-02-19-00h14m31s999.png"></a><br>
​</div><br>
<div class="bbCodeBlock bbCodeCode">
<div class="type">Code:</div>
<pre>General
ID                                       : 1 (0x1)
Complete name                            : D:\Justin Timberlake - Selfish, Sanctified ( Live @ Saturday Night Live ) HDTV MPEG2 1080i DD5.1-ilya2129.ts
Format                                   : MPEG-TS
File size                                : 959 MiB
Duration                                 : 9 min 17 s
Overall bit rate mode                    : Variable
Overall bit rate                         : 14.4 Mb/s
Frame rate                               : 29.970 FPS
Movie name                               : Saturday Night Live
Law rating                               : TV-14 (DL)

Video
ID                                       : 301 (0x12D)
Menu ID                                  : 1 (0x1)
Format                                   : MPEG Video
Format version                           : Version 2
Format profile                           : Main@High
Format settings                          : CustomMatrix / BVOP
Format settings, BVOP                    : Yes
Format settings, Matrix                  : Custom
Format settings, GOP                     : Variable
Format settings, picture structure       : Frame
Codec ID                                 : 2
Duration                                 : 9 min 17 s
Bit rate mode                            : Variable
Bit rate                                 : 13.1 Mb/s
Maximum bit rate                         : 17.6 Mb/s
Width                                    : 1 920 pixels
Height                                   : 1 080 pixels
Display aspect ratio                     : 16:9
Active Format Description                : Full frame 16:9 image
Frame rate                               : 29.970 (30000/1001) FPS
Color space                              : YUV
Chroma subsampling                       : 4:2:0
Bit depth                                : 8 bits
Scan type                                : Interlaced
Scan order                               : Top Field First
Compression mode                         : Lossy
Bits/(Pixel*Frame)                       : 0.211
Time code of first frame                 : 11:23:58;15
Time code source                         : Group of pictures header
GOP, Open/Closed                         : Open
Stream size                              : 873 MiB (91%)

Audio #1
ID                                       : 302 (0x12E)
Menu ID                                  : 1 (0x1)
Format                                   : AC-3
Format/Info                              : Audio Coding 3
Commercial name                          : Dolby Digital
Codec ID                                 : 129
Duration                                 : 9 min 17 s
Bit rate mode                            : Constant
Bit rate                                 : 384 kb/s
Channel(s)                               : 6 channels
Channel layout                           : L R C LFE Ls Rs
Sampling rate                            : 48.0 kHz
Frame rate                               : 31.250 FPS (1536 SPF)
Compression mode                         : Lossy
Delay relative to video                  : 1 ms
Stream size                              : 25.5 MiB (3%)
Language                                 : English
Service kind                             : Complete Main

Audio #2
ID                                       : 303 (0x12F)
Menu ID                                  : 1 (0x1)
Format                                   : AC-3
Format/Info                              : Audio Coding 3
Commercial name                          : Dolby Digital
Codec ID                                 : 129
Duration                                 : 9 min 17 s
Bit rate mode                            : Constant
Bit rate                                 : 192 kb/s
Channel(s)                               : 2 channels
Channel layout                           : L R
Sampling rate                            : 48.0 kHz
Frame rate                               : 31.250 FPS (1536 SPF)
Compression mode                         : Lossy
Delay relative to video                  : 1 ms
Stream size                              : 12.8 MiB (1%)
Language                                 : Spanish
Service kind                             : Complete Main

Text #1
ID                                       : 301 (0x12D)-CC1
Menu ID                                  : 1 (0x1)
Format                                   : EIA-608
Muxing mode                              : A/53 / DTVCC Transport
Muxing mode, more info                   : Muxed in Video #1
Duration                                 : 9 min 17 s
Duration of the visible content          : 8 min 57 s
Start time (commands)                    : 12 s 591 ms
Start time                               : 12 s 658 ms
End time                                 : 9 min 10 s
Bit rate mode                            : Constant
Stream size                              : 0.00 Byte (0%)
Type of the first event                  : RollUp

Text #2
ID                                       : 301 (0x12D)-1
Menu ID                                  : 1 (0x1)
Format                                   : EIA-708
Muxing mode                              : A/53 / DTVCC Transport
Muxing mode, more info                   : Muxed in Video #1
Duration                                 : 9 min 17 s
Bit rate mode                            : Constant
Stream size                              : 0.00 Byte (0%)

</pre>
</div><div style="text-align: center">
<div class="bbCodeBlock bbCodeVfcHH HiddenContent">
<div class="attribution type">Hidden Content:</div>
<blockquote>You must reply before you can see the hidden data contained here.</blockquote>
</div></div>
<div class="messageTextEndMarker">&nbsp;</div>
</blockquote>
</article>]]></description>
                <author><![CDATA[ilya2129]]></author>
                </item>

                
                <item>
                <title><![CDATA[【Actresses】Kayden Kross - Chicks 'N' Guns (2013) 1080p]]></title>
                <link><![CDATA[https://sharemania.us/threads/kayden-kross-chicks-n-guns-2013-1080p.238008/]]></link>
                <description><![CDATA[<article>
<blockquote class="messageText SelectQuoteContainer ugc baseHtml">
Kayden Kross - Chicks 'N' Guns (2013) 1080p<br>
<br>
<a href="https://imgbox.com/UpowjjLN" target="_blank" class="externalLink" rel="nofollow"><img src="https://thumbs2.imgbox.com/05/e0/UpowjjLN_t.jpg" class="bbCodeImage LbImage" alt="[​IMG]" data-url="https://thumbs2.imgbox.com/05/e0/UpowjjLN_t.jpg"></a> <a href="https://imgbox.com/KRwLDTZb" target="_blank" class="externalLink" rel="nofollow"><img src="https://thumbs2.imgbox.com/2d/04/KRwLDTZb_t.jpg" class="bbCodeImage LbImage" alt="[​IMG]" data-url="https://thumbs2.imgbox.com/2d/04/KRwLDTZb_t.jpg"></a> <a href="https://imgbox.com/K7zv2Lqk" target="_blank" class="externalLink" rel="nofollow"><img src="https://thumbs2.imgbox.com/b2/eb/K7zv2Lqk_t.jpg" class="bbCodeImage LbImage" alt="[​IMG]" data-url="https://thumbs2.imgbox.com/b2/eb/K7zv2Lqk_t.jpg"></a> <a href="https://imgbox.com/YHeIqwCA" target="_blank" class="externalLink" rel="nofollow"><img src="https://thumbs2.imgbox.com/83/70/YHeIqwCA_t.jpg" class="bbCodeImage LbImage" alt="[​IMG]" data-url="https://thumbs2.imgbox.com/83/70/YHeIqwCA_t.jpg"></a> <a href="https://imgbox.com/qLLim4na" target="_blank" class="externalLink" rel="nofollow"><img src="https://thumbs2.imgbox.com/2a/7c/qLLim4na_t.jpg" class="bbCodeImage LbImage" alt="[​IMG]" data-url="https://thumbs2.imgbox.com/2a/7c/qLLim4na_t.jpg"></a> <a href="https://imgbox.com/9a8HS4PT" target="_blank" class="externalLink" rel="nofollow"><img src="https://thumbs2.imgbox.com/af/cc/9a8HS4PT_t.jpg" class="bbCodeImage LbImage" alt="[​IMG]" data-url="https://thumbs2.imgbox.com/af/cc/9a8HS4PT_t.jpg"></a><br>
Duration: 0:04:22 Resolution: 1920x1080 Format: mp4 Size: 240.77 MB<br>
<a href="https://filejoker.net/s6fpyfj58i2k" target="_blank" class="externalLink" rel="nofollow">https://filejoker.net/s6fpyfj58i2k</a>
<div class="messageTextEndMarker">&nbsp;</div>
</blockquote>
</article>]]></description>
                <author><![CDATA[piqeros]]></author>
                </item>

                
                <item>
                <title><![CDATA[【HD Live Performances】FEED - Sophie Ellis-Bextor - Murder On The Dancefloor ( Live @ BAFTA Awards 2024 ) FEED HDTV H264 1080i MP2-ilya2129]]></title>
                <link><![CDATA[https://sharemania.us/threads/sophie-ellis-bextor-murder-on-the-dancefloor-live-bafta-awards-2024-feed-hdtv-h264-1080i-mp2-ilya2129.238006/]]></link>
                <description><![CDATA[<article>
<blockquote class="messageText SelectQuoteContainer ugc baseHtml">
<div style="text-align: center"><img src="https://i123.fastpic.org/big/2024/0219/4c/e6a81d4057cc6fdfbad536cd1a814c4c.png" class="bbCodeImage LbImage" alt="[​IMG]" data-url="https://i123.fastpic.org/big/2024/0219/4c/e6a81d4057cc6fdfbad536cd1a814c4c.png" style=""><br>
<br>
<a href="https://postimg.cc/XXj2wqhn" target="_blank" class="externalLink" rel="nofollow"><img src="https://i.postimg.cc/XXj2wqhn/vlcsnap-2024-02-19-00h07m36s928.png" class="bbCodeImage LbImage" alt="[​IMG]" data-url="https://i.postimg.cc/XXj2wqhn/vlcsnap-2024-02-19-00h07m36s928.png"></a> <a href="https://postimg.cc/dLX4PB00" target="_blank" class="externalLink" rel="nofollow"><img src="https://i.postimg.cc/dLX4PB00/vlcsnap-2024-02-19-00h07m38s578.png" class="bbCodeImage LbImage" alt="[​IMG]" data-url="https://i.postimg.cc/dLX4PB00/vlcsnap-2024-02-19-00h07m38s578.png"></a> <a href="https://postimg.cc/p9QZjMJ9" target="_blank" class="externalLink" rel="nofollow"><img src="https://i.postimg.cc/p9QZjMJ9/vlcsnap-2024-02-19-00h07m40s644.png" class="bbCodeImage LbImage" alt="[​IMG]" data-url="https://i.postimg.cc/p9QZjMJ9/vlcsnap-2024-02-19-00h07m40s644.png"></a> <a href="https://postimg.cc/zV30cM8M" target="_blank" class="externalLink" rel="nofollow"><img src="https://i.postimg.cc/zV30cM8M/vlcsnap-2024-02-19-00h07m42s334.png" class="bbCodeImage LbImage" alt="[​IMG]" data-url="https://i.postimg.cc/zV30cM8M/vlcsnap-2024-02-19-00h07m42s334.png"></a> <a href="https://postimg.cc/CZp7dxkT" target="_blank" class="externalLink" rel="nofollow"><img src="https://i.postimg.cc/CZp7dxkT/vlcsnap-2024-02-19-00h07m43s760.png" class="bbCodeImage LbImage" alt="[​IMG]" data-url="https://i.postimg.cc/CZp7dxkT/vlcsnap-2024-02-19-00h07m43s760.png"></a> <a href="https://postimg.cc/K1MQZMKD" target="_blank" class="externalLink" rel="nofollow"><img src="https://i.postimg.cc/K1MQZMKD/vlcsnap-2024-02-19-00h07m48s435.png" class="bbCodeImage LbImage" alt="[​IMG]" data-url="https://i.postimg.cc/K1MQZMKD/vlcsnap-2024-02-19-00h07m48s435.png"></a> <br>
​</div><br>
<div class="bbCodeBlock bbCodeCode">
<div class="type">Code:</div>
<pre>General
ID                                       : 1 (0x1)
Complete name                            : D:\Sophie Ellis-Bextor - Murder On The Dancefloor ( Live @ BAFTA Awards 2024 ) FEED HDTV H264 1080i MP2-ilya2129.ts
Format                                   : MPEG-TS
File size                                : 750 MiB
Duration                                 : 3 min 22 s
Overall bit rate mode                    : Variable
Overall bit rate                         : 31.1 Mb/s
Frame rate                               : 25.000 FPS

Video
ID                                       : 33 (0x21)
Menu ID                                  : 1 (0x1)
Format                                   : AVC
Format/Info                              : Advanced Video Codec
Format profile                           : High@L4.1
Format settings                          : CABAC / 4 Ref Frames
Format settings, CABAC                   : Yes
Format settings, Reference frames        : 4 frames
Codec ID                                 : 27
Duration                                 : 3 min 22 s
Bit rate                                 : 28.8 Mb/s
Width                                    : 1 920 pixels
Height                                   : 1 080 pixels
Display aspect ratio                     : 16:9
Active Format Description                : Full frame 16:9 image
Frame rate                               : 25.000 FPS
Color space                              : YUV
Chroma subsampling                       : 4:2:0
Bit depth                                : 8 bits
Scan type                                : Interlaced
Scan type, store method                  : Separated fields
Scan order                               : Top Field First
Bits/(Pixel*Frame)                       : 0.555
Stream size                              : 694 MiB (93%)
Color range                              : Limited
Color primaries                          : BT.709
Transfer characteristics                 : BT.709
Matrix coefficients                      : BT.709

Audio #1
ID                                       : 34 (0x22)
Menu ID                                  : 1 (0x1)
Format                                   : MPEG Audio
Format version                           : Version 1
Format profile                           : Layer 2
Codec ID                                 : 3
Duration                                 : 3 min 22 s
Bit rate mode                            : Constant
Bit rate                                 : 384 kb/s
Channel(s)                               : 2 channels
Sampling rate                            : 48.0 kHz
Frame rate                               : 41.667 FPS (1152 SPF)
Compression mode                         : Lossy
Delay relative to video                  : -40 ms
Stream size                              : 9.27 MiB (1%)
Language                                 : English

Audio #2
ID                                       : 35 (0x23)
Menu ID                                  : 1 (0x1)
Format                                   : MPEG Audio
Format version                           : Version 1
Format profile                           : Layer 2
Codec ID                                 : 3
Duration                                 : 3 min 22 s
Bit rate mode                            : Constant
Bit rate                                 : 384 kb/s
Channel(s)                               : 2 channels
Sampling rate                            : 48.0 kHz
Frame rate                               : 41.667 FPS (1152 SPF)
Compression mode                         : Lossy
Delay relative to video                  : -40 ms
Stream size                              : 9.27 MiB (1%)
Language                                 : French
</pre>
</div><div style="text-align: center">
<div class="bbCodeBlock bbCodeVfcHH HiddenContent">
<div class="attribution type">Hidden Content:</div>
<blockquote>You must reply before you can see the hidden data contained here.</blockquote>
</div></div>
<div class="messageTextEndMarker">&nbsp;</div>
</blockquote>
</article>]]></description>
                <author><![CDATA[ilya2129]]></author>
                </item>

                </channel></rss>